<mxfile host="65bd71144e">
    <diagram id="JqCgHVk3HgfUnSHFJm5c" name="第1頁">
        <mxGraphModel dx="901" dy="933" grid="1" gridSize="10" guides="1" tooltips="1" connect="1" arrows="1" fold="1" page="1" pageScale="1" pageWidth="827" pageHeight="1169" math="0" shadow="0">
            <root>
                <mxCell id="0"/>
                <mxCell id="1" parent="0"/>
                <mxCell id="36" value="" style="group" vertex="1" connectable="0" parent="1">
                    <mxGeometry x="160" y="280" width="80" height="440" as="geometry"/>
                </mxCell>
                <mxCell id="13" value="OID" style="swimlane;whiteSpace=wrap;html=1;startSize=23;container=0;" vertex="1" parent="36">
                    <mxGeometry width="80" height="440" as="geometry"/>
                </mxCell>
                <mxCell id="14" value="43" style="ellipse;whiteSpace=wrap;html=1;aspect=fixed;container=0;" vertex="1" parent="36">
                    <mxGeometry x="20" y="30" width="40" height="40" as="geometry"/>
                </mxCell>
                <mxCell id="15" value="44" style="ellipse;whiteSpace=wrap;html=1;aspect=fixed;container=0;" vertex="1" parent="36">
                    <mxGeometry x="20" y="80" width="40" height="40" as="geometry"/>
                </mxCell>
                <mxCell id="16" value="45" style="ellipse;whiteSpace=wrap;html=1;aspect=fixed;container=0;" vertex="1" parent="36">
                    <mxGeometry x="20" y="130" width="40" height="40" as="geometry"/>
                </mxCell>
                <mxCell id="17" value="46" style="ellipse;whiteSpace=wrap;html=1;aspect=fixed;container=0;" vertex="1" parent="36">
                    <mxGeometry x="20" y="180" width="40" height="40" as="geometry"/>
                </mxCell>
                <mxCell id="18" value="47" style="ellipse;whiteSpace=wrap;html=1;aspect=fixed;container=0;" vertex="1" parent="36">
                    <mxGeometry x="20" y="230" width="40" height="40" as="geometry"/>
                </mxCell>
                <mxCell id="19" value="48" style="ellipse;whiteSpace=wrap;html=1;aspect=fixed;container=0;" vertex="1" parent="36">
                    <mxGeometry x="20" y="280" width="40" height="40" as="geometry"/>
                </mxCell>
                <mxCell id="20" value="49" style="ellipse;whiteSpace=wrap;html=1;aspect=fixed;container=0;" vertex="1" parent="36">
                    <mxGeometry x="20" y="330" width="40" height="40" as="geometry"/>
                </mxCell>
                <mxCell id="21" value="50" style="ellipse;whiteSpace=wrap;html=1;aspect=fixed;container=0;" vertex="1" parent="36">
                    <mxGeometry x="20" y="380" width="40" height="40" as="geometry"/>
                </mxCell>
                <mxCell id="37" value="" style="group" vertex="1" connectable="0" parent="1">
                    <mxGeometry x="360" y="280" width="80" height="440" as="geometry"/>
                </mxCell>
                <mxCell id="4" value="OI" style="swimlane;whiteSpace=wrap;html=1;startSize=23;container=0;" vertex="1" parent="37">
                    <mxGeometry width="80" height="440" as="geometry"/>
                </mxCell>
                <mxCell id="5" value="0" style="ellipse;whiteSpace=wrap;html=1;aspect=fixed;container=0;" vertex="1" parent="37">
                    <mxGeometry x="20" y="30" width="40" height="40" as="geometry"/>
                </mxCell>
                <mxCell id="6" value="1" style="ellipse;whiteSpace=wrap;html=1;aspect=fixed;container=0;" vertex="1" parent="37">
                    <mxGeometry x="20" y="80" width="40" height="40" as="geometry"/>
                </mxCell>
                <mxCell id="7" value="2" style="ellipse;whiteSpace=wrap;html=1;aspect=fixed;container=0;" vertex="1" parent="37">
                    <mxGeometry x="20" y="130" width="40" height="40" as="geometry"/>
                </mxCell>
                <mxCell id="8" value="3" style="ellipse;whiteSpace=wrap;html=1;aspect=fixed;container=0;" vertex="1" parent="37">
                    <mxGeometry x="20" y="180" width="40" height="40" as="geometry"/>
                </mxCell>
                <mxCell id="9" value="4" style="ellipse;whiteSpace=wrap;html=1;aspect=fixed;container=0;" vertex="1" parent="37">
                    <mxGeometry x="20" y="230" width="40" height="40" as="geometry"/>
                </mxCell>
                <mxCell id="10" value="5" style="ellipse;whiteSpace=wrap;html=1;aspect=fixed;container=0;" vertex="1" parent="37">
                    <mxGeometry x="20" y="280" width="40" height="40" as="geometry"/>
                </mxCell>
                <mxCell id="11" value="6" style="ellipse;whiteSpace=wrap;html=1;aspect=fixed;container=0;" vertex="1" parent="37">
                    <mxGeometry x="20" y="330" width="40" height="40" as="geometry"/>
                </mxCell>
                <mxCell id="12" value="7" style="ellipse;whiteSpace=wrap;html=1;aspect=fixed;container=0;" vertex="1" parent="37">
                    <mxGeometry x="20" y="380" width="40" height="40" as="geometry"/>
                </mxCell>
                <mxCell id="40" style="edgeStyle=none;html=1;exitX=1;exitY=0.5;exitDx=0;exitDy=0;entryX=0;entryY=0.5;entryDx=0;entryDy=0;" edge="1" parent="1" source="14" target="5">
                    <mxGeometry relative="1" as="geometry"/>
                </mxCell>
                <mxCell id="41" style="edgeStyle=none;html=1;exitX=1;exitY=0.5;exitDx=0;exitDy=0;entryX=0;entryY=0.5;entryDx=0;entryDy=0;" edge="1" parent="1" source="15" target="6">
                    <mxGeometry relative="1" as="geometry"/>
                </mxCell>
                <mxCell id="42" style="edgeStyle=none;html=1;exitX=1;exitY=0.5;exitDx=0;exitDy=0;entryX=0;entryY=0.5;entryDx=0;entryDy=0;" edge="1" parent="1" source="16" target="7">
                    <mxGeometry relative="1" as="geometry"/>
                </mxCell>
                <mxCell id="43" style="edgeStyle=none;html=1;exitX=1;exitY=0.5;exitDx=0;exitDy=0;entryX=0;entryY=0.5;entryDx=0;entryDy=0;" edge="1" parent="1" source="17" target="8">
                    <mxGeometry relative="1" as="geometry"/>
                </mxCell>
                <mxCell id="45" style="edgeStyle=none;html=1;exitX=1;exitY=0.5;exitDx=0;exitDy=0;entryX=0;entryY=0.5;entryDx=0;entryDy=0;" edge="1" parent="1" source="18" target="9">
                    <mxGeometry relative="1" as="geometry"/>
                </mxCell>
                <mxCell id="46" style="edgeStyle=none;html=1;exitX=1;exitY=0.5;exitDx=0;exitDy=0;entryX=0;entryY=0.5;entryDx=0;entryDy=0;" edge="1" parent="1" source="19" target="10">
                    <mxGeometry relative="1" as="geometry"/>
                </mxCell>
                <mxCell id="47" style="edgeStyle=none;html=1;exitX=1;exitY=0.5;exitDx=0;exitDy=0;entryX=0;entryY=0.5;entryDx=0;entryDy=0;" edge="1" parent="1" source="20" target="11">
                    <mxGeometry relative="1" as="geometry"/>
                </mxCell>
                <mxCell id="49" style="edgeStyle=none;html=1;exitX=1;exitY=0.5;exitDx=0;exitDy=0;entryX=0;entryY=0.5;entryDx=0;entryDy=0;" edge="1" parent="1" source="21" target="12">
                    <mxGeometry relative="1" as="geometry"/>
                </mxCell>
                <mxCell id="50" value="Real Opcode" style="swimlane;whiteSpace=wrap;html=1;startSize=23;" vertex="1" parent="1">
                    <mxGeometry x="560" y="280" width="80" height="440" as="geometry"/>
                </mxCell>
                <mxCell id="51" value="1" style="ellipse;whiteSpace=wrap;html=1;aspect=fixed;" vertex="1" parent="50">
                    <mxGeometry x="20" y="30" width="40" height="40" as="geometry"/>
                </mxCell>
                <mxCell id="52" value="2" style="ellipse;whiteSpace=wrap;html=1;aspect=fixed;" vertex="1" parent="50">
                    <mxGeometry x="20" y="80" width="40" height="40" as="geometry"/>
                </mxCell>
                <mxCell id="53" value="3" style="ellipse;whiteSpace=wrap;html=1;aspect=fixed;" vertex="1" parent="50">
                    <mxGeometry x="20" y="130" width="40" height="40" as="geometry"/>
                </mxCell>
                <mxCell id="54" value="4" style="ellipse;whiteSpace=wrap;html=1;aspect=fixed;" vertex="1" parent="50">
                    <mxGeometry x="20" y="180" width="40" height="40" as="geometry"/>
                </mxCell>
                <mxCell id="55" value="5" style="ellipse;whiteSpace=wrap;html=1;aspect=fixed;" vertex="1" parent="50">
                    <mxGeometry x="20" y="230" width="40" height="40" as="geometry"/>
                </mxCell>
                <mxCell id="56" value="6" style="ellipse;whiteSpace=wrap;html=1;aspect=fixed;" vertex="1" parent="50">
                    <mxGeometry x="20" y="280" width="40" height="40" as="geometry"/>
                </mxCell>
                <mxCell id="57" value="7" style="ellipse;whiteSpace=wrap;html=1;aspect=fixed;" vertex="1" parent="50">
                    <mxGeometry x="20" y="330" width="40" height="40" as="geometry"/>
                </mxCell>
                <mxCell id="58" value="8" style="ellipse;whiteSpace=wrap;html=1;aspect=fixed;" vertex="1" parent="50">
                    <mxGeometry x="20" y="380" width="40" height="40" as="geometry"/>
                </mxCell>
                <mxCell id="59" style="edgeStyle=none;html=1;exitX=1;exitY=0.5;exitDx=0;exitDy=0;entryX=0;entryY=0.5;entryDx=0;entryDy=0;" edge="1" parent="1" source="11" target="51">
                    <mxGeometry relative="1" as="geometry"/>
                </mxCell>
                <mxCell id="60" style="edgeStyle=none;html=1;exitX=1;exitY=0.5;exitDx=0;exitDy=0;entryX=0;entryY=0.5;entryDx=0;entryDy=0;" edge="1" parent="1" source="6" target="52">
                    <mxGeometry relative="1" as="geometry"/>
                </mxCell>
                <mxCell id="61" style="edgeStyle=none;html=1;exitX=1;exitY=0.5;exitDx=0;exitDy=0;entryX=0;entryY=0.5;entryDx=0;entryDy=0;" edge="1" parent="1" source="9" target="53">
                    <mxGeometry relative="1" as="geometry"/>
                </mxCell>
                <mxCell id="62" style="edgeStyle=none;html=1;exitX=1;exitY=0.5;exitDx=0;exitDy=0;" edge="1" parent="1" source="7" target="54">
                    <mxGeometry relative="1" as="geometry"/>
                </mxCell>
                <mxCell id="63" style="edgeStyle=none;html=1;exitX=1;exitY=0.5;exitDx=0;exitDy=0;entryX=0;entryY=0.5;entryDx=0;entryDy=0;" edge="1" parent="1" source="8" target="55">
                    <mxGeometry relative="1" as="geometry"/>
                </mxCell>
                <mxCell id="64" style="edgeStyle=none;html=1;exitX=1;exitY=0.5;exitDx=0;exitDy=0;entryX=0;entryY=0.5;entryDx=0;entryDy=0;" edge="1" parent="1" source="10" target="58">
                    <mxGeometry relative="1" as="geometry"/>
                </mxCell>
                <mxCell id="65" style="edgeStyle=none;html=1;exitX=1;exitY=0.5;exitDx=0;exitDy=0;entryX=0;entryY=0.5;entryDx=0;entryDy=0;" edge="1" parent="1" source="12" target="57">
                    <mxGeometry relative="1" as="geometry"/>
                </mxCell>
                <mxCell id="66" style="edgeStyle=none;html=1;exitX=1;exitY=0.5;exitDx=0;exitDy=0;entryX=0;entryY=0.5;entryDx=0;entryDy=0;" edge="1" parent="1" source="5" target="56">
                    <mxGeometry relative="1" as="geometry"/>
                </mxCell>
                <mxCell id="67" value="Run time" style="shape=process;whiteSpace=wrap;html=1;backgroundOutline=1;" vertex="1" parent="1">
                    <mxGeometry x="160" y="740" width="480" height="60" as="geometry"/>
                </mxCell>
            </root>
        </mxGraphModel>
    </diagram>
</mxfile>